<?xml version="1.0" standalone="no"?>
<!DOCTYPE svg PUBLIC "-//W3C//DTD SVG 20010904//EN"
 "http://www.w3.org/TR/2001/REC-SVG-20010904/DTD/svg10.dtd">
<svg version="1.0" xmlns="http://www.w3.org/2000/svg"
 width="300.000000pt" height="424.000000pt" viewBox="0 0 300.000000 424.000000"
 preserveAspectRatio="xMidYMid meet">
<metadata>
Created by potrace 1.10, written by Peter Selinger 2001-2011
</metadata>
<g transform="translate(0.000000,424.000000) scale(0.100000,-0.100000)"
fill="#000000" stroke="none">
<path d="M576 4105 c-25 -23 -26 -29 -26 -125 0 -95 2 -102 26 -126 19 -20 31
-24 47 -19 24 8 37 8 147 0 109 -9 131 -7 151 11 16 14 21 15 35 3 11 -9 50
-14 119 -16 92 -2 106 0 130 19 15 12 34 36 41 55 13 29 12 37 -2 65 -29 56
-52 69 -121 66 -57 -3 -65 0 -88 25 -32 34 -64 35 -95 2 -13 -14 -31 -25 -40
-25 -9 0 -21 -5 -27 -11 -17 -17 -88 11 -109 43 -40 60 -140 78 -188 33z m142
-31 c28 -20 29 -70 2 -99 l-20 -21 35 -41 c19 -23 35 -43 35 -45 0 -2 -15 -2
-34 0 -27 3 -41 13 -63 45 l-28 41 -3 -42 c-3 -37 -6 -42 -28 -42 -24 0 -24 0
-24 110 l0 110 53 0 c31 0 61 -6 75 -16z m292 -45 c0 -24 4 -30 15 -25 10 4
15 -1 15 -14 0 -11 -7 -20 -15 -20 -10 0 -15 -10 -15 -30 0 -19 5 -30 14 -30
14 0 28 -34 18 -44 -11 -12 -50 -5 -63 10 -8 9 -13 34 -13 55 1 24 -3 39 -11
39 -15 0 -15 28 0 34 8 2 10 15 8 30 -5 23 -2 26 21 26 22 0 26 -4 26 -31z
m-178 -71 c3 -45 6 -53 23 -53 17 0 20 8 23 53 3 48 5 52 28 52 23 0 24 -3 24
-55 0 -42 -5 -60 -20 -75 -24 -24 -77 -26 -108 -4 -19 13 -22 24 -22 75 0 56
1 59 24 59 23 0 25 -4 28 -52z m363 27 c30 -29 32 -64 6 -96 -15 -19 -29 -24
-65 -24 -52 0 -73 16 -82 62 -14 71 87 112 141 58z"/>
<path d="M640 4020 c0 -23 5 -30 19 -30 21 0 33 22 25 45 -4 8 -15 15 -25 15
-14 0 -19 -7 -19 -30z"/>
<path d="M1110 3956 c-27 -33 18 -72 48 -42 13 13 14 20 6 34 -15 23 -38 26
-54 8z"/>
<path d="M1302 4107 c-41 -44 -38 -230 5 -262 10 -8 42 -15 71 -15 47 0 58 4
82 30 15 17 37 30 49 30 11 0 34 -13 51 -30 32 -32 58 -38 78 -18 9 9 18 9 37
0 33 -15 87 -15 120 0 19 9 28 9 37 0 14 -14 122 -16 147 -3 12 7 30 5 56 -3
26 -9 49 -11 78 -4 23 5 51 7 64 3 12 -3 33 0 47 6 18 8 29 9 38 2 15 -13 207
-12 226 1 18 11 70 -15 106 -53 26 -27 37 -31 84 -31 46 0 58 4 83 29 23 24
29 39 30 78 5 162 -5 177 -111 169 -103 -7 -97 -7 -172 0 -57 5 -68 10 -74 28
-10 33 -35 56 -60 56 -23 0 -64 -42 -64 -65 0 -14 -76 -20 -202 -16 -37 1 -77
-3 -89 -9 -15 -9 -24 -9 -32 -1 -14 14 -132 14 -159 0 -15 -8 -26 -8 -42 1
-12 6 -42 12 -66 13 -39 2 -45 5 -48 25 -8 56 -71 82 -105 44 -9 -9 -17 -36
-18 -60 -2 -23 -7 -43 -11 -43 -4 -1 -19 -1 -33 -1 -45 0 -46 1 -39 38 5 29 2
40 -17 60 -32 34 -115 35 -147 1z m330 -125 c-3 -112 -4 -118 -24 -117 -19 1
-20 8 -22 118 l-1 117 25 0 25 0 -3 -118z m-192 82 c0 -25 -2 -25 -40 -19 -38
6 -40 6 -40 -19 0 -24 4 -26 40 -26 37 0 40 -2 40 -26 0 -25 -2 -26 -40 -20
-38 6 -40 5 -40 -19 0 -23 4 -25 40 -25 35 0 40 -3 40 -22 0 -22 -3 -23 -65
-20 l-65 4 0 109 0 109 65 0 c63 0 65 -1 65 -26z m958 -2 c4 -28 -24 -41 -44
-20 -20 20 -7 50 20 46 13 -2 22 -12 24 -26z m-621 -67 c11 -8 23 -26 25 -40
5 -24 4 -25 -50 -25 -48 0 -53 -2 -41 -16 9 -11 22 -14 45 -9 40 7 52 -8 22
-29 -31 -22 -60 -20 -92 5 -73 58 14 168 91 114z m203 -62 c0 -40 -2 -73 -4
-73 -3 0 -16 4 -30 10 -16 6 -27 6 -31 0 -10 -17 -54 -11 -75 10 -26 26 -27
83 -1 109 15 15 33 19 80 18 l61 0 0 -74z m147 55 c13 -12 23 -30 23 -40 0
-15 -8 -18 -51 -18 -36 0 -49 -4 -46 -12 3 -8 19 -12 45 -10 48 3 61 -11 30
-32 -50 -36 -128 0 -128 59 0 34 42 75 76 75 15 0 38 -10 51 -22z m176 4 c12
-11 17 -30 17 -67 0 -48 -2 -53 -25 -57 -23 -5 -24 -2 -27 46 -3 43 -6 51 -23
51 -17 0 -20 -8 -23 -51 -3 -48 -4 -51 -27 -46 -24 4 -25 8 -25 72 l0 67 58 0
c37 1 63 -5 75 -15z m95 -53 c3 -64 2 -67 -23 -71 -25 -5 -25 -5 -25 69 0 71
1 74 23 71 20 -3 22 -9 25 -69z m168 46 c8 -10 14 -40 14 -66 0 -42 -3 -47
-25 -51 -23 -5 -24 -2 -27 46 -3 43 -6 51 -23 51 -17 0 -20 -8 -23 -46 -3 -41
-6 -47 -28 -52 -24 -4 -24 -3 -24 69 l0 73 61 -3 c47 -1 65 -6 75 -21z m132
13 c9 -9 12 -9 12 0 0 7 11 12 25 12 25 0 25 -1 25 -85 0 -78 -2 -88 -25 -110
-16 -17 -35 -25 -57 -25 -33 0 -78 23 -78 39 0 16 30 21 55 9 28 -12 55 2 55
30 0 12 -3 13 -12 4 -35 -35 -98 5 -98 63 0 58 63 98 98 63z m-1143 -53 c0
-15 -8 -21 -33 -23 -47 -5 -61 3 -55 28 5 18 12 21 47 18 33 -2 41 -7 41 -23z"/>
<path d="M1717 3974 c-14 -14 -6 -24 19 -24 16 0 24 5 22 13 -5 14 -31 21 -41
11z"/>
<path d="M1877 3963 c-13 -13 -7 -51 9 -57 20 -8 44 11 44 34 0 23 -37 39 -53
23z"/>
<path d="M2057 3974 c-14 -14 -6 -24 19 -24 16 0 24 5 22 13 -5 14 -31 21 -41
11z"/>
<path d="M2657 3964 c-13 -14 -7 -52 10 -58 25 -10 51 20 37 42 -12 19 -36 27
-47 16z"/>
<path d="M2881 3944 c-20 -25 -20 -38 -21 -558 0 -525 0 -533 21 -559 17 -23
28 -27 70 -27 37 0 49 4 49 15 0 11 -12 15 -50 15 l-50 0 0 555 0 555 50 0
c38 0 50 4 50 15 0 11 -12 15 -49 15 -41 0 -53 -4 -70 -26z"/>
<path d="M320 3928 c-19 -20 -20 -34 -20 -232 0 -116 4 -216 8 -222 13 -20 50
-34 88 -34 l38 0 -56 -52 c-63 -60 -86 -98 -94 -162 -19 -138 91 -276 235
-293 63 -7 143 12 177 43 23 23 28 24 43 10 28 -26 104 -56 142 -56 51 0 98
18 144 55 l40 32 44 -38 c48 -43 97 -57 146 -42 18 6 56 8 84 5 44 -4 55 -1
77 18 l24 24 20 -22 c28 -30 95 -30 127 0 l23 21 23 -21 c30 -29 97 -30 121
-3 17 19 22 42 25 129 1 30 5 42 16 42 12 0 15 -14 15 -66 0 -63 11 -101 34
-116 6 -4 30 -8 53 -8 38 0 46 4 65 34 l22 34 20 -26 20 -25 -22 -15 c-26 -17
-29 -58 -6 -90 9 -13 13 -26 10 -30 -12 -11 -91 -9 -130 5 -25 8 -43 10 -50 4
-7 -6 -41 -10 -76 -11 -36 0 -110 -2 -165 -4 -55 -2 -125 -4 -155 -5 -30 0
-68 0 -85 -1 -16 0 -49 7 -72 16 -38 14 -44 14 -74 -2 -41 -21 -138 -20 -180
1 -26 14 -32 14 -61 -2 -39 -19 -75 -19 -142 4 -38 12 -53 13 -68 4 -35 -22
-126 -25 -167 -6 -36 16 -40 16 -71 0 -17 -9 -39 -13 -48 -10 -36 14 -136 24
-153 15 -10 -6 -20 -28 -24 -52 -6 -36 -4 -44 14 -60 19 -14 38 -17 117 -14
99 4 118 -5 62 -29 -22 -8 -58 -12 -105 -9 -67 4 -73 3 -87 -19 -29 -43 -3
-97 46 -97 16 0 38 -5 48 -10 13 -7 28 -7 46 0 25 10 114 11 544 8 148 -1 232
3 255 14 19 9 28 9 37 0 8 -8 51 -12 121 -12 59 0 117 -5 128 -10 13 -7 25 -7
38 0 11 5 48 10 83 11 71 2 93 10 100 37 8 31 -24 62 -77 76 -50 12 -50 13
-25 26 18 11 70 14 195 15 94 0 184 -3 202 -6 53 -11 80 33 47 79 l-15 22 61
-4 c70 -5 110 6 159 42 53 39 61 72 61 247 0 144 -1 156 -21 176 -18 18 -30
21 -78 16 -31 -2 -67 0 -81 5 -41 15 -96 -1 -143 -42 l-44 -39 -33 34 c-38 39
-111 62 -150 47 -14 -5 -49 -7 -78 -4 -46 4 -56 1 -78 -19 l-24 -23 -22 21
-21 21 22 28 c55 70 -14 163 -96 129 -17 -7 -34 -18 -37 -24 -4 -6 -12 -9 -17
-6 -16 10 -10 40 11 53 17 10 20 23 20 80 1 75 14 102 51 101 13 0 33 1 44 3
18 3 20 -4 25 -84 4 -72 9 -90 25 -102 28 -22 78 -19 109 5 24 19 26 27 26 89
0 38 5 72 11 75 17 11 23 -3 20 -51 -3 -56 15 -111 39 -124 30 -16 76 -12 101
9 23 18 24 26 24 128 0 117 -9 143 -63 180 -23 15 -44 18 -141 15 -63 -1 -120
-7 -127 -13 -9 -7 -20 -5 -39 7 -20 13 -36 15 -73 9 -26 -4 -69 -6 -96 -5 -38
1 -54 -4 -72 -21 l-24 -22 -22 20 c-19 17 -42 22 -130 27 -118 7 -141 1 -187
-48 -31 -33 -41 -33 -76 4 -84 88 -241 54 -290 -63 -8 -20 -15 -46 -15 -57 0
-18 -6 -20 -59 -20 -55 0 -59 2 -66 27 -3 14 -6 54 -5 87 4 160 1 195 -20 216
-28 28 -93 27 -120 -2z m110 -189 l0 -182 75 5 75 5 0 -46 0 -46 -125 0 -125
0 0 223 0 222 50 0 50 0 0 -181z m427 -5 c31 -20 53 -55 60 -98 l6 -36 -102 0
c-91 0 -102 -2 -99 -17 2 -10 15 -24 30 -32 24 -14 30 -14 61 1 29 14 41 15
66 5 39 -15 39 -30 0 -58 -33 -23 -110 -36 -153 -25 -65 16 -114 94 -101 162
8 44 58 101 99 114 38 11 103 4 133 -16z m286 7 c29 -15 37 -16 37 -5 0 10 13
14 45 14 l45 0 0 -138 0 -139 -45 1 c-29 1 -45 5 -45 14 0 16 -10 15 -34 -3
-27 -20 -91 -19 -127 2 -32 19 -69 85 -69 124 0 43 42 113 80 131 45 23 67 23
113 -1z m435 5 c3 -3 -3 -23 -12 -45 -18 -38 -19 -39 -59 -33 -56 7 -67 -11
-67 -113 l0 -81 -46 2 -45 2 -2 136 -2 136 48 0 c41 0 47 -3 47 -21 0 -20 1
-20 32 6 26 22 39 26 66 21 19 -3 37 -8 40 -10z m269 -1 c21 -9 44 -24 50 -34
7 -11 13 -65 14 -126 l2 -108 -47 -1 -46 -1 0 83 c0 46 -5 92 -10 103 -12 22
-62 26 -78 6 -6 -7 -12 -53 -14 -101 l-3 -88 -47 -2 -48 -2 0 138 0 138 50 0
c41 0 48 -3 43 -16 -4 -12 1 -11 28 5 41 25 57 26 106 6z m-867 -266 c44 -36
99 -51 141 -39 17 5 53 6 80 3 42 -5 55 -2 80 16 34 25 37 20 10 -18 -14 -19
-21 -48 -23 -91 l-3 -64 -48 -1 c-49 -3 -122 -41 -134 -70 -8 -22 -27 -18 -54
11 -72 77 -195 82 -275 12 -41 -36 -64 -77 -64 -114 0 -21 -3 -25 -17 -19 -10
4 -29 6 -43 4 -117 -15 -170 11 -170 82 0 69 63 108 143 88 45 -10 50 -10 72
11 13 12 29 35 36 52 10 25 9 33 -8 56 -11 15 -34 32 -51 38 -45 15 -58 29
-42 48 11 14 15 14 39 -3 48 -34 101 -51 143 -45 49 6 100 28 124 55 9 10 19
19 21 19 2 0 21 -14 43 -31z m420 -279 l0 -230 -45 0 c-34 0 -45 4 -45 15 0
13 -3 13 -26 -1 -36 -24 -104 -22 -141 4 -31 22 -63 85 -63 124 0 37 41 108
71 123 37 20 109 19 137 -1 l23 -16 -3 106 -3 106 48 0 47 0 0 -230z m-757
204 c26 -9 47 -20 47 -25 0 -6 -9 -27 -20 -49 -19 -38 -20 -39 -47 -25 -60 32
-148 9 -183 -47 -66 -105 56 -233 175 -184 21 9 39 15 39 14 16 -33 36 -80 36
-84 0 -14 -82 -36 -135 -37 -101 0 -180 48 -221 138 -39 83 -27 159 34 227 71
79 175 106 275 72z m925 -12 c27 -35 1 -92 -43 -92 -54 0 -74 83 -26 106 27
14 50 9 69 -14z m-98 -107 c0 -7 -7 -18 -15 -25 -13 -11 -15 -8 -15 18 0 24 4
30 15 26 8 -4 15 -12 15 -19z m422 -52 c41 -20 48 -42 48 -157 l0 -106 -50 0
-49 0 6 80 c7 91 -9 130 -52 130 -40 0 -55 -34 -55 -127 l0 -83 -45 0 -45 0 0
140 0 140 45 0 c32 0 45 -4 45 -14 0 -11 8 -10 37 5 38 19 65 18 115 -8z
m-911 -6 c126 -84 62 -260 -96 -260 -98 0 -171 69 -162 152 9 83 70 131 168
131 42 0 65 -6 90 -23z m589 -117 l0 -140 -47 0 -48 0 0 140 0 140 48 0 47 0
0 -140z m620 125 c26 -14 29 -14 24 0 -5 12 3 15 45 15 l51 0 0 -157 c0 -180
-9 -212 -70 -245 -27 -15 -51 -18 -107 -16 -64 3 -76 7 -103 33 -16 16 -30 32
-30 37 0 4 14 15 32 24 29 15 34 15 59 0 55 -32 106 -15 123 42 7 21 -7 32
-18 13 -10 -15 -68 -21 -107 -11 -102 28 -133 172 -52 247 28 27 42 33 79 33
25 0 58 -7 74 -15z m-1844 -435 c-2 -8 -7 -27 -10 -42 -6 -26 -36 -41 -36 -18
0 6 5 10 11 10 8 0 10 12 6 33 -4 27 -2 33 14 33 12 0 18 -6 15 -16z m214 1
c0 -23 23 -34 39 -18 16 16 32 -3 25 -31 -7 -26 -29 -29 -44 -4 -9 14 -11 14
-7 1 4 -12 -1 -16 -20 -16 -22 0 -24 3 -19 30 3 16 6 36 6 43 0 8 5 14 10 14
6 0 10 -9 10 -19z m224 13 c9 -3 16 -11 16 -16 0 -6 -7 -8 -15 -4 -12 4 -15
-3 -15 -29 0 -19 -4 -35 -10 -35 -11 0 -14 49 -4 74 7 18 7 18 28 10z m212
-16 c-3 -13 -6 -33 -6 -45 0 -13 -4 -23 -10 -23 -5 0 -10 8 -10 18 0 10 -7 19
-15 19 -18 0 -20 -23 -2 -30 7 -3 5 -6 -6 -6 -10 -1 -20 6 -23 14 -8 19 13 45
31 39 7 -3 16 3 20 15 9 29 29 27 21 -1z m249 2 c-4 -11 -2 -20 4 -20 6 0 11
-11 11 -25 0 -31 -19 -33 -21 -2 l-2 22 -4 -22 c-7 -36 -23 -27 -17 10 8 48
12 57 24 57 7 0 9 -8 5 -20z m611 -17 c-3 -21 -3 -30 0 -21 4 12 17 16 48 16
39 0 43 -2 40 -21 -4 -22 -4 -22 7 1 9 17 21 22 51 22 27 0 38 -4 38 -15 0 -8
7 -15 15 -15 17 0 18 -2 9 -24 -3 -9 -10 -16 -16 -16 -5 0 -6 5 -3 10 3 6 -1
10 -9 10 -10 0 -17 9 -17 23 l-2 22 -4 -22 c-2 -13 -9 -23 -15 -23 -6 0 -8 9
-5 20 3 13 0 20 -9 20 -8 0 -14 -9 -14 -20 0 -16 -7 -20 -35 -20 -25 0 -35 4
-35 16 0 8 -5 12 -10 9 -6 -4 -8 -10 -5 -15 3 -5 -8 -8 -25 -8 -28 1 -30 4
-30 38 0 20 3 40 7 43 16 17 24 4 19 -30z m-1330 -5 c-3 -13 -6 -29 -6 -35 0
-7 -4 -13 -10 -13 -5 0 -10 16 -10 35 0 26 4 35 16 35 12 0 15 -6 10 -22z
m1180 0 c-3 -13 -6 -29 -6 -35 0 -7 -4 -13 -10 -13 -5 0 -10 9 -10 20 0 17 -2
19 -14 8 -10 -10 -11 -15 -2 -21 6 -5 -1 -6 -16 -3 -21 5 -28 3 -28 -9 0 -14
-10 -19 -27 -12 -13 4 -12 55 1 66 11 9 18 8 30 -4 9 -9 16 -12 16 -6 0 6 9
11 20 11 11 0 20 5 20 10 0 6 7 10 16 10 12 0 15 -6 10 -22z m51 -13 c-1 -20
-7 -35 -14 -35 -14 0 -17 28 -7 54 11 28 23 17 21 -19z m-1039 14 c18 2 22 -2
22 -23 0 -32 -19 -35 -21 -3 l-2 22 -4 -22 c-2 -13 -9 -23 -15 -23 -5 0 -8 6
-5 13 3 8 -3 13 -17 14 -11 0 -15 -1 -8 -4 16 -6 15 -23 -2 -23 -8 0 -16 7
-20 15 -7 18 22 48 37 38 7 -4 22 -6 35 -4z m171 -25 c-9 -12 -10 -15 -1 -10
6 4 12 2 12 -3 0 -6 -9 -11 -20 -11 -23 0 -27 29 -8 48 19 19 34 -3 17 -24z
m191 10 c0 -8 4 -14 9 -14 5 0 8 6 7 13 0 6 4 13 9 15 6 1 11 -8 13 -21 3 -23
0 -24 -57 -26 -59 -1 -61 0 -61 24 0 18 5 25 20 25 11 0 20 -7 20 -15 0 -8 5
-15 11 -15 5 0 7 5 4 10 -8 13 4 32 16 25 5 -4 9 -13 9 -21z m130 6 c0 -24
-15 -40 -36 -40 -20 0 -24 5 -24 28 0 26 3 28 30 24 17 -2 30 -8 30 -12z m177
7 c3 -4 0 -14 -8 -24 -12 -14 -12 -16 0 -8 10 5 12 4 7 -3 -12 -19 -36 -14
-36 8 0 11 -4 20 -10 20 -5 0 -10 -9 -10 -20 0 -11 -5 -20 -11 -20 -7 0 -9 9
-6 21 4 16 3 18 -9 8 -7 -6 -11 -15 -8 -20 3 -5 -2 -9 -10 -9 -18 0 -23 46 -6
52 16 5 100 1 107 -5z m73 3 c0 -8 44 -5 58 4 8 5 12 -1 13 -16 1 -23 1 -23 9
2 9 29 12 26 14 -12 2 -23 -2 -28 -21 -28 -15 0 -23 6 -23 17 0 15 -1 15 -13
-2 -8 -10 -19 -15 -26 -11 -6 4 -14 0 -17 -8 -15 -39 -49 -1 -37 42 4 16 43
27 43 12z m339 -31 c-5 -10 -14 -19 -20 -19 -16 0 -22 29 -9 45 19 22 43 0 29
-26z m-1387 4 c-5 -26 -17 -30 -26 -8 -3 8 -11 15 -18 14 -10 0 -10 -2 0 -6
17 -7 15 -23 -3 -23 -9 0 -15 9 -15 25 0 21 4 24 33 23 30 -1 33 -4 29 -25z
m58 2 c0 -31 -19 -33 -21 -2 l-2 22 -4 -22 c-2 -13 -9 -23 -15 -23 -5 0 -7 7
-4 16 3 9 6 20 6 25 0 5 9 9 20 9 15 0 20 -7 20 -25z m380 0 c0 -14 -5 -25
-11 -25 -6 0 -9 9 -6 20 7 27 -1 25 -13 -2 -8 -22 -9 -22 -9 5 -1 21 4 27 19
27 15 0 20 -7 20 -25z m-82 -58 c6 0 12 -5 12 -10 0 -5 -7 -7 -15 -3 -8 3 -31
-2 -52 -11 -44 -18 -151 -13 -164 9 -12 18 47 27 136 20 39 -2 76 -5 83 -5z
m152 3 c12 -8 12 -10 -5 -10 -11 0 -29 -7 -39 -15 -17 -13 -22 -13 -39 3 -19
17 -18 17 19 23 22 3 41 7 44 7 3 1 12 -3 20 -8z m315 0 l70 0 -27 -27 c-23
-22 -29 -24 -43 -13 -11 9 -34 11 -83 6 -68 -7 -122 4 -122 23 0 10 80 20 115
15 11 -2 51 -4 90 -4z m171 -5 c16 -13 17 -16 4 -24 -13 -9 -52 -6 -72 6 -15
8 -8 22 15 26 12 2 25 5 28 6 3 0 14 -6 25 -14z m183 -9 c9 -10 8 -15 -1 -19
-23 -8 -82 3 -97 18 -14 13 -9 15 36 15 31 0 55 -5 62 -14z m-1056 -41 c-3 -8
0 -15 6 -15 6 0 11 -11 11 -25 0 -31 -19 -33 -21 -2 l-2 22 -4 -22 c-3 -17
-11 -23 -29 -23 -22 0 -24 3 -18 22 6 20 5 21 -9 9 -9 -7 -14 -17 -11 -22 3
-5 -2 -9 -10 -9 -18 0 -21 31 -5 47 6 6 18 9 25 6 8 -3 14 0 14 6 0 6 5 11 11
11 7 0 8 -11 4 -31 -5 -22 -4 -29 4 -25 6 4 11 20 11 35 0 15 3 31 6 34 11 11
24 -3 17 -18z m287 5 c0 -11 5 -20 10 -20 6 0 10 -11 10 -25 0 -31 -19 -33
-21 -2 l-2 22 -4 -22 c-2 -13 -9 -23 -15 -23 -6 0 -8 10 -4 23 3 12 6 32 6 45
0 12 5 22 10 22 6 0 10 -9 10 -20z m96 -11 c-3 -17 -6 -38 -6 -45 0 -16 -36
-19 -44 -5 -9 14 4 41 20 41 8 0 14 9 14 20 0 11 5 20 11 20 8 0 9 -11 5 -31z
m99 7 c-4 -11 -9 -33 -12 -49 -3 -15 -10 -30 -16 -34 -7 -4 -8 5 -4 25 4 19 2
32 -3 32 -6 0 -10 -11 -10 -24 0 -14 -4 -28 -10 -31 -12 -8 -13 45 -1 77 6 15
17 23 36 24 23 2 26 -1 20 -20z m303 -21 c-3 -39 -6 -45 -25 -45 -18 0 -23 6
-23 25 0 16 6 25 15 25 8 0 15 9 15 20 0 11 5 20 10 20 6 0 9 -20 8 -45z m158
14 c-3 -17 -6 -38 -6 -45 0 -8 -4 -14 -10 -14 -5 0 -10 7 -10 16 0 8 -5 12
-10 9 -6 -4 -8 -11 -5 -16 4 -5 0 -9 -8 -9 -8 0 -17 7 -21 15 -3 8 -11 15 -18
14 -10 0 -10 -2 0 -6 6 -2 10 -9 6 -14 -8 -14 -24 -11 -24 5 0 8 -7 16 -15 20
-16 6 -16 -14 0 -27 6 -5 1 -7 -10 -5 -12 2 -20 11 -20 22 0 26 46 38 79 21
14 -8 25 -11 25 -7 -3 19 2 23 16 12 13 -11 15 -8 15 14 0 14 5 26 11 26 8 0
9 -11 5 -31z m-1149 -24 c-1 -21 -7 -35 -15 -35 -8 0 -11 9 -8 28 2 15 5 30 5
35 1 4 5 7 10 7 5 0 9 -16 8 -35z m458 18 c-2 -10 -4 -26 -4 -35 -1 -24 -21
-23 -21 1 0 25 10 51 20 51 5 0 7 -8 5 -17z m438 2 c4 -8 2 -17 -4 -21 -6 -3
-8 -12 -5 -20 4 -11 -4 -14 -34 -14 -29 0 -40 4 -40 15 0 9 -6 12 -16 8 -13
-5 -13 -7 -2 -14 10 -7 8 -9 -5 -9 -11 0 -21 9 -25 22 l-5 22 -9 -23 c-11 -30
-63 -27 -63 4 0 11 8 21 18 23 9 2 17 -2 17 -8 0 -6 -4 -9 -8 -6 -5 3 -9 -1
-9 -9 0 -8 6 -15 14 -15 7 0 13 9 13 20 0 17 7 20 48 21 26 1 57 0 70 -1 12
-1 22 3 22 9 0 16 17 13 23 -4z m-817 -7 c20 3 21 0 15 -30 -4 -21 -14 -34
-25 -36 -10 -2 -16 0 -12 6 3 5 -3 21 -14 33 -17 21 -19 22 -20 6 0 -12 4 -16
13 -11 9 5 9 4 0 -6 -11 -12 -33 -6 -33 10 0 16 32 40 43 33 7 -4 22 -6 33 -5z
m240 -1 c4 -3 -1 -9 -10 -13 -9 -3 -16 -12 -16 -20 0 -8 -5 -14 -11 -14 -7 0
-9 9 -6 21 4 16 3 18 -9 8 -7 -6 -11 -15 -8 -20 3 -5 -2 -9 -10 -9 -18 0 -22
46 -5 52 18 6 67 3 75 -5z m43 -19 c1 18 7 22 31 22 25 0 30 -4 30 -25 0 -14
-4 -25 -10 -25 -5 0 -10 7 -10 15 0 8 -8 15 -17 14 -11 0 -13 -3 -5 -6 19 -7
4 -23 -24 -23 -18 0 -24 5 -24 23 0 36 14 42 21 10 6 -23 7 -24 8 -5z m841 20
c0 5 9 8 20 5 11 -3 20 -10 20 -15 0 -5 6 -3 13 4 8 8 33 13 58 12 40 -1 44
-3 47 -27 2 -19 -1 -27 -13 -27 -9 0 -15 7 -13 16 2 10 -3 19 -9 21 -8 3 -13
-4 -13 -16 0 -12 -4 -21 -10 -21 -5 0 -10 7 -10 15 0 9 -6 12 -16 8 -13 -5
-13 -8 -2 -15 9 -7 5 -8 -14 -4 -17 4 -32 1 -42 -9 -21 -21 -29 -19 -24 8 3
16 0 24 -9 24 -8 0 -12 -6 -9 -14 3 -7 -1 -13 -9 -13 -18 0 -20 31 -3 48 8 8
15 9 25 1 8 -8 13 -8 13 -1z"/>
<path d="M732 3678 c-22 -22 -13 -28 43 -28 53 0 55 1 45 20 -12 23 -68 28
-88 8z"/>
<path d="M1093 3670 c-23 -10 -43 -39 -43 -64 0 -26 38 -56 69 -56 58 0 81 73
35 109 -30 23 -30 23 -61 11z m42 -60 c0 -8 -8 -16 -17 -18 -13 -2 -18 3 -18
18 0 15 5 20 18 18 9 -2 17 -10 17 -18z"/>
<path d="M1196 3148 c-32 -45 -6 -98 48 -98 57 0 83 51 50 98 -10 15 -25 22
-49 22 -24 0 -39 -7 -49 -22z m67 -24 c9 -10 -4 -34 -19 -34 -8 0 -14 9 -14
20 0 19 19 27 33 14z"/>
<path d="M836 3148 c-20 -28 -20 -48 0 -76 23 -34 83 -27 104 11 13 24 13 30
0 55 -21 37 -81 44 -104 10z m72 -35 c5 -17 -26 -29 -40 -15 -6 6 -7 15 -3 22
9 14 37 9 43 -7z"/>
<path d="M2107 3152 c-38 -42 -8 -102 50 -102 37 0 56 21 56 62 0 53 -70 80
-106 40z m63 -42 c0 -21 -24 -28 -35 -10 -8 14 3 30 21 30 8 0 14 -9 14 -20z"/>
<path d="M1239 1641 l-29 -29 0 -140 0 -140 -45 -84 c-61 -116 -79 -195 -72
-333 9 -174 82 -373 179 -491 31 -38 38 -54 38 -90 0 -36 5 -49 31 -71 28 -26
30 -31 24 -73 -5 -35 -15 -53 -46 -82 -34 -31 -40 -42 -37 -70 2 -27 8 -34 28
-36 20 -3 23 -1 13 9 -16 16 -17 51 -1 67 7 7 24 12 39 12 25 0 27 3 33 63 14
125 15 129 48 125 16 -3 31 -1 35 5 3 5 -24 7 -66 5 l-71 -3 0 28 0 27 74 0
73 0 7 80 7 80 41 0 41 0 -7 -65 c-4 -36 -9 -72 -12 -80 -5 -13 10 -15 108
-15 124 0 158 12 158 53 -1 33 -75 326 -86 337 -10 9 -109 13 -337 11 -175 -1
-172 3 -128 -167 31 -117 51 -163 51 -114 0 14 -9 59 -20 100 -23 87 -25 133
-7 148 10 8 368 11 409 3 4 0 15 -27 23 -58 9 -32 23 -80 31 -107 9 -27 17
-60 19 -75 2 -14 7 -35 10 -47 12 -40 -18 -54 -111 -54 -93 0 -88 -4 -84 73 5
105 -110 103 -125 -1 -3 -26 -9 -53 -13 -58 -4 -6 -35 -14 -69 -17 -58 -6 -62
-5 -69 16 -4 12 -24 49 -45 83 -182 288 -206 593 -63 805 l34 51 0 154 0 154
220 0 220 0 0 -31 c0 -28 3 -31 23 -25 12 3 28 6 35 6 6 0 12 11 12 25 l0 25
220 0 c213 0 220 -1 220 -20 0 -14 7 -20 23 -20 12 0 32 -3 45 -6 19 -5 22 -2
22 20 l0 26 220 0 220 0 0 -116 c0 -113 0 -116 30 -153 29 -35 70 -126 70
-154 0 -9 -90 -11 -413 -9 -340 2 -416 0 -432 -12 -16 -11 -23 -48 -47 -257
l-27 -244 57 -115 c41 -81 63 -115 75 -114 9 1 15 -2 12 -5 -5 -9 109 -31 151
-30 25 0 26 2 9 8 -11 5 -24 6 -28 4 -5 -3 -20 -2 -35 2 l-27 7 30 14 30 13
-40 0 c-78 -2 -118 1 -112 7 3 3 -8 24 -24 47 -16 22 -29 44 -29 49 0 4 87 8
194 8 l194 0 10 -43 11 -42 81 -1 c70 0 80 2 75 15 -4 9 -9 28 -12 44 l-5 27
71 0 c77 0 76 2 39 -53 -30 -43 -21 -62 28 -59 40 3 41 2 84 -63 43 -65 44
-66 84 -63 38 2 40 1 40 -25 l0 -29 -212 2 -213 1 -57 -50 c-31 -27 -67 -58
-79 -68 -17 -15 -22 -32 -27 -98 -5 -80 5 -70 19 17 5 32 17 47 74 93 38 30
74 55 80 55 13 0 9 -34 -15 -130 -18 -71 -18 -110 0 -110 15 0 20 23 31 135
12 131 14 135 46 135 34 0 33 4 14 -120 -19 -121 -19 -150 -1 -150 16 0 27 69
24 150 -3 81 6 97 54 101 24 2 59 2 78 -1 42 -6 47 -22 49 -157 1 -76 4 -93
16 -93 18 0 18 20 1 158 -7 56 -10 104 -8 107 3 3 16 5 28 5 18 0 24 -7 29
-32 6 -36 25 -206 25 -225 0 -7 7 -13 15 -13 19 0 19 37 1 98 -8 26 -17 69
-19 95 -5 47 -4 48 35 68 36 18 39 23 36 57 -3 34 -7 38 -47 52 -33 11 -53 27
-80 64 -19 27 -49 55 -68 62 -30 13 -32 16 -21 34 11 16 24 20 75 20 56 0 63
3 87 31 14 17 26 35 26 40 0 15 30 290 35 324 3 17 8 76 11 131 l7 101 -31 28
c-17 15 -39 49 -49 74 -9 25 -29 65 -45 88 -26 39 -28 48 -28 143 0 99 -1 102
-29 131 l-29 29 -205 0 c-167 0 -207 -3 -217 -15 -21 -25 -49 -27 -79 -6 -27
20 -43 21 -230 21 -190 0 -204 -1 -230 -21 l-29 -21 -20 20 c-19 19 -33 21
-227 22 l-206 0 -30 -29z m1645 -460 c16 -18 15 -34 -14 -297 -17 -153 -36
-284 -42 -291 -8 -10 -24 -12 -55 -7 -41 6 -196 9 -623 13 l-185 2 -18 38
c-17 37 -17 46 9 277 14 132 31 245 36 252 15 18 841 18 856 0 11 -15 -42
-532 -58 -560 -7 -12 -7 -18 0 -18 19 0 27 44 56 307 27 255 27 263 9 283 -15
16 -15 20 -3 20 8 0 23 -8 32 -19z m-390 -627 c9 -3 16 -12 16 -20 0 -17 -85
-20 -95 -4 -15 25 36 41 79 24z"/>
<path d="M2255 1160 l-240 -6 248 -2 c159 -1 247 2 247 8 0 6 -3 9 -7 8 -5 -1
-116 -5 -248 -8z"/>
<path d="M2515 1142 c-11 -4 32 -9 95 -12 l115 -5 -3 -30 c-2 -16 -11 -88 -20
-160 l-17 -130 -149 -3 c-82 -1 -153 1 -158 6 -7 7 9 185 27 295 3 17 1 26 -5
22 -6 -3 -10 -15 -10 -26 0 -20 -8 -23 -34 -13 -9 3 -13 10 -10 15 3 5 0 9 -5
9 -6 0 -11 -3 -11 -7 0 -5 -20 -8 -45 -8 -25 0 -45 3 -45 7 0 5 -17 7 -37 7
l-38 -2 35 -7 c34 -7 34 -7 -13 -9 -36 -1 -46 2 -41 12 5 8 2 8 -9 -2 -14 -11
-17 -11 -17 0 0 11 -2 11 -10 -1 -9 -13 -10 -13 -10 0 0 12 -2 13 -9 1 -7 -11
-9 -11 -13 0 -3 10 -11 7 -28 -9 -25 -24 -34 -64 -45 -212 -4 -47 -11 -98 -16
-114 -12 -40 -11 -80 3 -94 7 -7 45 -12 98 -12 100 0 118 11 127 78 5 40 6 41
54 47 27 4 51 11 55 16 3 5 12 9 20 9 15 0 19 -30 5 -45 -11 -13 -23 -120 -13
-129 4 -4 12 25 17 66 l10 73 155 0 155 0 0 -30 c-1 -16 -4 -51 -8 -77 -4 -30
-3 -48 3 -48 6 0 10 7 10 15 0 9 10 15 23 16 13 1 16 3 7 5 -12 4 -16 21 -17
76 -1 41 3 78 9 85 11 14 15 38 17 101 1 26 5 32 24 33 20 1 21 1 2 7 -18 6
-32 42 -16 42 13 0 10 119 -4 130 -16 13 -180 22 -210 12z m-160 -104 c-4 -24
-12 -86 -18 -138 l-12 -95 -155 0 -155 0 1 35 c1 19 7 81 14 138 l12 102 160
0 159 0 -6 -42z m-155 -302 c0 -61 -12 -67 -117 -64 l-88 3 3 40 c5 66 3 65
107 65 l95 0 0 -44z"/>
<path d="M2110 965 c0 -24 2 -25 75 -25 41 0 75 4 75 9 0 5 3 16 6 25 5 14 -5
16 -75 16 -80 0 -81 0 -81 -25z"/>
<path d="M2488 743 c23 -2 59 -2 80 0 20 2 1 4 -43 4 -44 0 -61 -2 -37 -4z"/>
<path d="M2548 713 c18 -2 45 -2 60 0 15 2 0 4 -33 4 -33 0 -45 -2 -27 -4z"/>
<path d="M2468 693 c17 -2 47 -2 65 0 17 2 3 4 -33 4 -36 0 -50 -2 -32 -4z"/>
<path d="M2478 643 c23 -2 59 -2 80 0 20 2 1 4 -43 4 -44 0 -61 -2 -37 -4z"/>
<path d="M288 1533 c-14 -16 -16 -89 -19 -563 -4 -843 -2 -970 16 -970 13 0
15 91 15 760 l0 760 260 0 260 0 0 -760 c0 -633 2 -760 14 -760 18 0 30 622
21 1135 -6 324 -9 383 -23 398 -14 15 -40 17 -272 17 -232 0 -258 -2 -272 -17z"/>
<path d="M1397 1529 c-13 -15 -21 -18 -31 -10 -18 15 -27 3 -20 -25 4 -17 1
-26 -10 -30 -20 -8 -21 -30 0 -38 9 -3 14 -15 12 -28 -2 -19 1 -23 19 -21 14
2 27 -5 33 -17 13 -24 30 -26 30 -5 0 15 5 17 45 19 16 1 19 7 17 29 -3 19 1
27 12 27 21 0 21 26 0 34 -11 4 -14 13 -10 30 7 28 -2 40 -20 25 -9 -8 -18 -5
-33 10 -25 25 -23 25 -44 0z m58 -84 c0 -10 -8 -23 -17 -29 -38 -23 -78 35
-42 61 15 11 21 11 38 -1 12 -7 21 -21 21 -31z"/>
<path d="M1543 1538 c2 -8 22 -13 52 -13 30 0 50 5 53 13 3 9 -12 12 -53 12
-41 0 -56 -3 -52 -12z"/>
<path d="M1747 1543 c-4 -3 -7 -19 -7 -34 0 -31 -19 -51 -21 -22 -3 41 -5 46
-16 50 -9 3 -13 -9 -13 -41 0 -46 0 -46 35 -46 l35 0 0 50 c0 51 -1 55 -13 43z"/>
<path d="M2200 1502 c0 -38 4 -52 14 -52 17 0 15 75 -3 93 -8 8 -11 -3 -11
-41z"/>
<path d="M2269 1538 c0 -2 -1 -22 -3 -45 -2 -30 2 -43 11 -43 9 0 13 14 13 45
0 25 -4 45 -10 45 -5 0 -10 -1 -11 -2z"/>
<path d="M1858 1523 c18 -2 45 -2 60 0 15 2 0 4 -33 4 -33 0 -45 -2 -27 -4z"/>
<path d="M2330 1440 l0 -90 183 0 182 0 0 90 0 90 -182 0 -183 0 0 -90z m348
3 c2 -51 0 -63 -15 -71 -22 -11 -283 -10 -301 2 -16 10 -14 117 2 128 6 5 79
7 161 5 l150 -2 3 -62z"/>
<path d="M1891 1495 c8 -7 148 -10 155 -2 4 4 -30 7 -76 7 -46 0 -81 -2 -79
-5z"/>
<path d="M1830 1460 c0 -6 32 -10 75 -10 43 0 75 4 75 10 0 6 -32 10 -75 10
-43 0 -75 -4 -75 -10z"/>
<path d="M625 1431 c-9 -28 5 -51 30 -51 32 0 49 23 35 49 -14 27 -56 28 -65
2z"/>
<path d="M1547 1444 c-14 -15 7 -24 54 -24 37 0 49 4 49 15 0 11 -12 15 -48
15 -27 0 -52 -3 -55 -6z"/>
<path d="M402 1415 c2 -14 6 -25 11 -25 4 0 48 0 97 0 89 0 90 0 90 25 l0 25
-101 0 -100 0 3 -25z"/>
<path d="M1690 1390 c0 -38 4 -50 15 -50 11 0 15 11 15 42 0 23 3 39 6 35 3
-3 6 -22 6 -41 0 -24 5 -36 14 -36 10 0 14 14 14 50 l0 50 -35 0 -35 0 0 -50z"/>
<path d="M2200 1390 c0 -33 4 -50 13 -50 8 0 12 17 13 50 0 35 -3 50 -13 50
-9 0 -13 -15 -13 -50z"/>
<path d="M2265 1390 c0 -34 4 -50 12 -50 9 0 13 16 13 50 0 33 -4 50 -13 50
-8 0 -12 -17 -12 -50z"/>
<path d="M1858 1423 c17 -2 47 -2 65 0 17 2 3 4 -33 4 -36 0 -50 -2 -32 -4z"/>
<path d="M1830 1360 c0 -6 28 -10 64 -10 36 0 68 5 71 10 4 6 -20 10 -64 10
-41 0 -71 -4 -71 -10z"/>
<path d="M551 1333 c-44 -37 -43 -114 2 -151 44 -37 129 -4 140 55 6 30 -9 89
-25 99 -15 10 -41 -27 -28 -40 21 -21 5 -76 -22 -76 -4 0 -8 29 -8 65 0 57 -2
65 -19 65 -10 0 -28 -8 -40 -17z m29 -79 c0 -31 -2 -35 -15 -24 -16 13 -20 42
-8 53 15 15 23 5 23 -29z"/>
<path d="M1830 1330 c0 -5 16 -10 35 -10 19 0 35 5 35 10 0 6 -16 10 -35 10
-19 0 -35 -4 -35 -10z"/>
<path d="M1920 1330 c0 -5 20 -10 45 -10 25 0 45 5 45 10 0 6 -20 10 -45 10
-25 0 -45 -4 -45 -10z"/>
<path d="M1690 1285 l0 -46 -220 3 c-121 2 -220 0 -220 -4 0 -5 98 -8 218 -8
223 0 242 3 242 40 0 8 4 22 9 29 8 12 13 11 29 -10 20 -24 21 -24 230 -27
l210 -3 21 27 c25 32 27 44 6 44 -9 0 -15 -9 -15 -25 l0 -25 -220 0 -220 0 0
25 c0 22 -4 25 -35 25 -35 0 -35 0 -35 -45z"/>
<path d="M2268 1286 c3 -35 8 -45 25 -50 39 -10 417 -7 438 4 13 7 19 21 19
45 0 50 -18 53 -22 3 l-3 -43 -215 0 -215 0 -3 43 c-2 24 -8 42 -15 42 -8 0
-11 -15 -9 -44z"/>
<path d="M2333 1310 c1 -21 13 -25 41 -14 28 11 18 34 -13 34 -24 0 -29 -4
-28 -20z"/>
<path d="M1460 1300 c0 -14 6 -20 23 -19 12 0 16 3 10 6 -21 8 -15 22 7 16 11
-3 20 0 20 6 0 6 -13 11 -30 11 -23 0 -30 -4 -30 -20z"/>
<path d="M1254 1192 c-16 -21 -21 -43 -22 -99 -2 -44 2 -73 8 -73 6 0 10 33
10 80 l0 81 158 -3 c154 -3 157 -3 160 -25 4 -27 22 -31 22 -5 0 11 -9 27 -20
37 -16 14 -17 20 -8 27 7 4 -54 8 -137 7 l-150 0 -21 -27z"/>
<path d="M1735 1208 c-36 -13 -75 -46 -75 -65 0 -7 -14 -25 -31 -40 -26 -24
-30 -33 -26 -63 3 -26 -1 -43 -14 -59 -11 -13 -19 -34 -19 -47 0 -24 1 -24
110 -24 98 0 110 2 110 18 0 15 -10 17 -91 13 l-92 -3 8 23 c4 13 9 40 12 59
9 53 75 143 118 158 55 20 135 -9 135 -49 0 -11 5 -19 10 -19 6 0 10 -7 10
-15 0 -8 7 -15 15 -15 19 0 19 11 2 53 -17 39 -38 57 -86 74 -42 15 -56 15
-96 1z"/>
<path d="M558 1135 c-71 -39 -45 -154 38 -171 37 -7 89 31 97 72 6 31 -9 90
-25 100 -15 10 -41 -27 -28 -40 21 -21 5 -76 -22 -76 -4 0 -8 29 -8 65 0 70
-5 75 -52 50z m22 -82 c0 -34 -1 -36 -16 -21 -10 10 -14 23 -9 37 10 34 25 24
25 -16z"/>
<path d="M1440 1085 c0 -38 3 -45 20 -45 17 0 20 7 20 45 0 38 -3 45 -20 45
-17 0 -20 -7 -20 -45z"/>
<path d="M1500 1081 c0 -22 5 -42 13 -44 6 -3 1 -6 -13 -7 -23 -1 -23 -2 -5
-9 30 -12 35 -5 35 50 0 37 -4 49 -15 49 -11 0 -15 -11 -15 -39z"/>
<path d="M1388 1075 c3 -21 10 -35 18 -35 9 0 14 12 14 35 0 27 -4 35 -18 35
-15 0 -17 -6 -14 -35z"/>
<path d="M1860 1084 c-6 -15 -14 -47 -17 -71 -3 -24 -13 -49 -23 -56 -17 -12
-25 -51 -8 -41 4 3 8 0 8 -5 0 -6 10 -11 23 -11 25 0 26 5 27 112 0 20 5 40
10 43 6 3 10 2 10 -4 0 -6 8 -7 17 -4 13 5 15 2 10 -11 -4 -10 -3 -15 3 -11
18 11 11 35 -10 35 -13 0 -20 7 -20 19 0 32 -19 35 -30 5z"/>
<path d="M1270 1060 c0 -13 7 -20 20 -20 13 0 20 7 20 20 0 13 -7 20 -20 20
-13 0 -20 -7 -20 -20z"/>
<path d="M1330 1045 c0 -9 -10 -15 -27 -16 -25 -1 -24 -2 7 -8 36 -7 101 0 68
7 -10 2 -15 9 -11 18 3 9 -2 14 -16 14 -12 0 -21 -6 -21 -15z"/>
<path d="M1247 995 c18 -13 49 -15 165 -12 l143 3 -147 2 c-85 1 -149 6 -153
12 -3 6 -11 10 -18 10 -6 0 -2 -7 10 -15z"/>
<path d="M520 927 c0 -18 5 -38 12 -45 9 -9 9 -12 0 -12 -7 0 -12 -13 -12 -30
l0 -30 85 0 85 0 0 30 c0 28 -1 29 -57 32 -57 3 -58 4 -61 34 -2 22 -11 35
-28 42 -23 11 -24 10 -24 -21z"/>
<path d="M1770 800 c-11 -11 -20 -28 -19 -37 0 -14 3 -13 11 5 23 46 82 42
116 -8 l25 -35 -8 30 c-3 16 -7 30 -8 31 -1 0 -13 8 -27 17 -33 23 -66 21 -90
-3z"/>
<path d="M406 794 c-20 -52 13 -94 74 -94 29 0 40 -4 40 -15 0 -9 9 -15 25
-15 16 0 25 6 25 16 0 14 8 16 60 10 l60 -7 0 33 0 33 -60 -3 c-55 -4 -60 -2
-60 17 0 16 -6 21 -25 21 -19 0 -25 -5 -25 -21 0 -17 -5 -20 -32 -17 -24 2
-33 8 -33 21 0 16 -20 36 -36 37 -4 0 -10 -7 -13 -16z"/>
<path d="M1818 578 c37 -75 42 -90 44 -120 2 -27 18 -29 18 -2 0 20 -71 174
-80 174 -4 0 4 -24 18 -52z"/>
<path d="M516 529 c-9 -45 17 -99 47 -99 25 0 49 21 60 53 12 32 30 19 23 -17
-5 -26 -3 -35 10 -40 26 -10 37 8 37 58 0 56 -17 78 -57 74 -25 -2 -35 -11
-49 -41 -19 -41 -41 -41 -31 0 4 16 2 28 -7 34 -22 14 -26 11 -33 -22z"/>
<path d="M2207 483 c-18 -17 2 -20 121 -20 70 0 108 2 85 4 -24 2 -43 8 -43
14 0 10 -153 13 -163 2z"/>
<path d="M2241 428 c11 -21 87 -25 122 -6 12 6 49 15 82 18 53 6 48 7 -40 7
-59 0 -86 -2 -65 -6 33 -6 34 -7 10 -14 -39 -11 -63 -9 -57 6 3 9 -5 13 -28
13 -29 0 -32 -2 -24 -18z"/>
<path d="M1899 424 c6 -12 25 -34 43 -49 l32 -27 -37 3 c-20 2 -39 0 -43 -4
-7 -7 323 -11 520 -7 80 2 92 4 129 31 22 16 43 29 46 29 3 0 15 -14 26 -30
19 -29 23 -30 90 -28 64 2 65 2 17 5 -50 4 -55 7 -85 49 -34 48 -55 55 -75 24
-9 -15 -23 -20 -53 -20 -36 0 -40 -2 -29 -15 21 -26 2 -30 -25 -5 l-24 23 -34
-26 c-33 -25 -38 -26 -193 -26 -205 0 -239 6 -282 56 -19 21 -29 28 -23 17z"/>
<path d="M414 376 c-12 -31 4 -49 37 -42 18 3 42 6 55 6 28 0 33 26 7 34 -59
17 -93 18 -99 2z"/>
<path d="M2544 355 c-18 -13 -15 -14 30 -15 42 0 47 2 36 15 -16 19 -41 19
-66 0z"/>
<path d="M520 290 c0 -16 -7 -20 -33 -20 -31 0 -34 -3 -34 -30 0 -27 3 -30 34
-30 18 0 33 -4 33 -10 0 -5 9 -10 20 -10 11 0 20 5 20 10 0 6 22 10 48 10 60
0 85 17 85 59 0 17 -2 34 -6 37 -10 10 -47 -7 -47 -22 0 -10 -12 -14 -40 -14
-33 0 -40 3 -40 20 0 13 -7 20 -20 20 -13 0 -20 -7 -20 -20z"/>
<path d="M1544 276 c-3 -8 -4 -27 -1 -43 3 -24 4 -23 6 9 1 32 5 37 29 41 l27
4 -28 2 c-16 0 -30 -5 -33 -13z"/>
<path d="M1916 267 c-8 -34 -43 -75 -78 -93 -33 -17 -114 -22 -171 -11 -37 8
-38 7 -27 -12 6 -12 17 -21 25 -21 8 0 15 -5 15 -11 0 -10 -52 15 -112 55
l-26 17 -4 -50 -3 -50 236 0 c212 -1 284 4 357 25 18 5 22 2 22 -14 0 -14 -9
-22 -29 -27 -24 -5 -30 -12 -33 -41 -3 -30 -1 -34 19 -34 17 0 23 7 29 36 4
19 13 38 20 41 20 8 17 41 -5 52 -12 7 -39 7 -77 1 -76 -13 -247 -13 -242 -1
2 6 19 20 38 33 19 13 46 40 59 60 l23 36 139 1 c127 2 140 0 159 -19 11 -11
20 -29 20 -39 0 -29 17 -34 24 -8 10 37 7 47 -20 72 -26 24 -31 25 -189 25
-162 0 -163 0 -169 -23z"/>
<path d="M2308 283 c23 -2 59 -2 80 0 20 2 1 4 -43 4 -44 0 -61 -2 -37 -4z"/>
<path d="M1455 203 c-3 -27 -8 -63 -11 -80 -3 -18 -1 -33 5 -33 5 0 12 26 16
57 3 32 8 68 11 81 2 12 0 22 -5 22 -5 0 -12 -21 -16 -47z"/>
<path d="M420 130 l0 -30 135 0 135 0 0 30 0 30 -135 0 -135 0 0 -30z"/>
<path d="M1515 69 c-4 -5 -18 -9 -30 -7 -13 2 -25 -1 -27 -7 -2 -5 14 -11 35
-13 32 -3 37 0 37 17 0 23 -5 27 -15 10z"/>
</g>
</svg>
