<?xml version="1.0" standalone="no"?>
<!DOCTYPE svg PUBLIC "-//W3C//DTD SVG 20010904//EN"
 "http://www.w3.org/TR/2001/REC-SVG-20010904/DTD/svg10.dtd">
<svg version="1.0" xmlns="http://www.w3.org/2000/svg"
 width="300.000000pt" height="300.000000pt" viewBox="0 0 300.000000 300.000000"
 preserveAspectRatio="xMidYMid meet">
<metadata>
Created by potrace 1.10, written by Peter Selinger 2001-2011
</metadata>
<g transform="translate(0.000000,300.000000) scale(0.100000,-0.100000)"
fill="#000000" stroke="none">
<path d="M1429 2297 c-21 -16 -28 -39 -18 -59 11 -20 -4 -67 -15 -49 -5 7 -23
10 -54 6 -26 -3 -103 -7 -172 -8 -105 -2 -131 -6 -165 -24 -138 -73 -168 -248
-63 -368 27 -31 104 -64 170 -71 67 -7 68 -8 68 -49 0 -39 25 -69 49 -60 9 4
22 9 29 12 9 4 12 -9 12 -47 0 -50 -1 -52 -23 -46 -17 4 -30 -1 -46 -18 -12
-13 -21 -27 -20 -32 1 -5 -4 -22 -11 -38 -13 -25 -12 -30 5 -43 12 -8 32 -12
50 -10 29 5 32 3 49 -46 20 -58 83 -147 103 -147 7 0 13 -4 13 -8 0 -10 82
-32 120 -32 41 0 120 38 150 73 58 67 67 95 68 226 1 68 6 130 11 138 5 9 24
21 42 27 41 13 48 42 19 74 -19 20 -19 22 -3 23 10 1 47 3 83 5 152 8 253 118
236 259 -8 72 -44 126 -110 166 l-51 32 -160 -1 c-88 -1 -179 1 -202 4 -41 5
-43 7 -43 39 0 29 -6 36 -46 59 -53 30 -53 30 -75 13z m33 -97 l-5 -80 234 0
c215 0 236 -2 275 -21 100 -48 122 -167 47 -249 -44 -49 -81 -60 -206 -60
-104 0 -120 -8 -98 -48 8 -15 7 -23 -2 -30 -23 -19 -35 1 -28 48 l6 45 132 5
c147 6 172 16 205 81 34 66 13 144 -51 186 -33 22 -41 23 -281 23 l-248 0 -4
88 c-5 96 -3 103 16 96 9 -4 11 -25 8 -84z m60 7 l-4 -47 211 0 c115 0 221 -4
234 -9 38 -15 96 -70 118 -112 49 -98 -3 -228 -111 -272 -50 -21 -235 -27
-235 -8 0 11 23 14 111 15 105 1 113 3 152 30 73 50 100 143 67 223 -21 50
-42 72 -90 94 -35 16 -68 19 -256 19 l-216 0 -6 53 c-5 56 -2 70 16 64 8 -2
11 -21 9 -50z m-124 -53 c-3 -14 -26 -16 -179 -17 -172 -2 -176 -2 -216 -29
-108 -71 -108 -230 -1 -304 36 -26 50 -29 117 -29 60 -1 76 -4 76 -15 0 -22
-129 -14 -177 11 -115 58 -153 200 -82 301 50 71 85 82 269 88 88 4 168 7 178
8 12 1 17 -4 15 -14z m-125 -34 c109 0 119 -2 124 -20 5 -18 17 -19 273 -22
255 -3 270 -4 297 -24 65 -49 66 -149 0 -196 -30 -21 -44 -23 -189 -26 l-158
-3 0 -235 c0 -252 -4 -275 -52 -306 -59 -38 -123 -27 -167 28 -20 25 -21 39
-21 251 l0 225 -67 -4 c-58 -2 -68 0 -71 14 -3 16 4 17 65 12 37 -3 74 -7 81
-10 9 -2 12 -57 12 -229 l0 -227 29 -29 c41 -41 101 -41 142 0 l29 29 0 250 0
250 171 4 171 3 24 28 c35 41 40 75 18 116 -32 59 -41 61 -336 61 -265 0 -268
0 -268 21 0 20 -4 21 -135 18 -74 -2 -137 0 -141 3 -12 13 9 30 30 24 11 -3
74 -6 139 -6z m-28 -50 c0 -12 -15 -14 -80 -12 -67 2 -85 0 -113 -18 -59 -36
-67 -113 -16 -161 24 -23 32 -24 162 -24 l137 0 3 73 3 72 -131 0 c-126 0
-131 -1 -139 -22 -5 -14 -5 -31 1 -42 13 -25 -5 -44 -26 -27 -10 9 -12 18 -6
29 5 10 11 29 15 44 7 34 16 36 168 41 76 2 121 -1 125 -7 8 -14 13 -153 5
-172 -4 -11 -32 -14 -137 -14 -150 0 -189 12 -218 71 -23 44 -23 76 2 116 27
45 54 57 140 64 97 8 105 7 105 -11z m610 -54 c0 -17 -16 -18 -227 -17 l-228
2 0 -76 c0 -68 2 -75 20 -75 19 0 20 -7 20 -203 0 -145 3 -206 12 -215 16 -16
-4 -37 -27 -28 -12 4 -14 10 -5 26 7 12 9 88 8 207 -3 186 -3 188 -25 191 -22
3 -23 8 -23 98 l0 94 219 0 c143 0 222 4 226 11 10 15 30 5 30 -15z m55 2 c0
-10 2 -10 9 0 6 10 10 10 21 -3 11 -13 10 -15 -1 -11 -20 8 -49 -18 -58 -50
-7 -27 -31 -39 -59 -29 -17 6 3 45 24 45 8 0 23 13 32 30 18 31 32 39 32 18z
m-122 -55 c-3 -15 -20 -16 -171 -14 l-167 3 0 -26 0 -26 237 2 c217 3 238 5
241 21 2 10 -3 17 -12 17 -21 0 -21 29 0 37 35 13 49 -69 14 -87 -12 -7 -105
-9 -257 -8 l-238 3 -3 42 -3 42 163 4 c90 1 171 4 181 5 13 1 17 -3 15 -15z
m-478 -38 l0 -45 -100 0 -100 0 0 45 0 45 100 0 100 0 0 -45z m-344 2 c1 -14
8 -37 18 -51 30 -47 62 -60 157 -64 l89 -4 2 -69 c1 -38 2 -77 2 -86 1 -10 -6
-18 -14 -18 -12 0 -14 14 -11 78 l3 77 -53 0 c-30 0 -71 5 -93 9 -41 10 -102
61 -112 95 -4 12 -11 24 -17 27 -14 9 0 42 16 37 6 -3 12 -16 13 -31z m594
-256 c0 -98 3 -193 6 -210 5 -26 3 -31 -12 -31 -18 0 -19 10 -16 200 l4 200
-26 0 -26 0 0 -234 c0 -239 5 -273 37 -230 12 17 15 17 29 2 20 -20 12 -34
-23 -41 -18 -3 -34 0 -45 10 -16 15 -18 41 -18 265 l0 248 45 0 45 0 0 -179z
m-235 79 c4 -6 2 -16 -3 -23 -5 -7 -8 -53 -6 -107 6 -131 4 -136 -53 -143 -50
-5 -71 7 -52 29 7 9 17 9 39 1 16 -6 31 -9 34 -6 8 7 9 216 2 228 -4 6 -4 16
-1 21 8 13 32 13 40 0z m38 -93 c-3 -6 -5 -59 -4 -119 2 -82 -1 -109 -11 -112
-7 -3 -48 -7 -91 -9 -69 -5 -78 -4 -75 11 3 14 16 17 78 17 l75 0 3 98 c2 58
-1 103 -7 111 -15 18 7 40 26 25 7 -6 10 -16 6 -22z m432 7 c0 -17 -6 -19 -67
-16 l-67 4 -3 -164 c-3 -185 -9 -200 -89 -245 -48 -28 -72 -30 -67 -5 3 11 12
16 27 14 29 -3 77 31 96 67 10 20 15 73 17 187 l3 159 55 3 c30 2 59 7 65 13
14 14 30 5 30 -17z m-81 -68 c-2 -6 -6 -68 -7 -136 -2 -116 -4 -128 -29 -171
-91 -155 -289 -141 -369 25 -29 60 -27 85 6 72 11 -4 14 -12 10 -25 -14 -44
44 -115 114 -142 65 -24 75 -24 138 5 38 18 58 35 76 68 24 39 26 54 28 171 1
70 -1 130 -4 134 -4 3 -2 12 4 20 14 16 41 -1 33 -21z m-303 -322 c13 -12 31
-24 39 -27 10 -4 9 -6 -6 -6 -31 -1 -76 43 -89 89 -6 23 -5 22 13 -5 11 -16
30 -40 43 -51z"/>
<path d="M1130 1925 c0 -25 1 -25 80 -25 79 0 80 0 80 25 0 25 -1 25 -80 25
-79 0 -80 0 -80 -25z"/>
<path d="M683 1104 c-20 -20 -23 -33 -23 -104 0 -67 3 -83 20 -100 11 -11 26
-20 33 -21 26 -2 64 2 109 13 36 9 50 9 62 -1 27 -22 125 -14 156 14 18 16 40
20 40 7 0 -5 12 -14 26 -20 28 -14 57 -3 73 26 9 16 12 15 41 -6 43 -33 92
-39 139 -17 36 16 40 16 71 0 90 -47 194 33 150 115 -11 20 -4 50 12 50 5 0
20 -12 33 -26 18 -20 25 -38 25 -69 0 -44 25 -85 52 -85 8 0 25 9 38 20 22 19
23 19 48 0 29 -23 106 -27 159 -8 27 10 38 10 53 0 25 -15 58 -15 99 -1 24 9
35 9 44 0 16 -16 35 -14 59 9 18 17 24 18 37 6 29 -24 49 -25 75 -5 24 19 26
27 26 98 0 53 -5 83 -16 99 -17 25 -56 29 -74 7 -16 -19 -34 -19 -50 0 -8 10
-30 14 -68 14 -32 -1 -66 0 -77 1 -11 0 -37 -4 -57 -11 -29 -9 -41 -9 -52 0
-11 9 -62 13 -167 14 -149 1 -151 0 -169 -24 l-19 -24 -28 26 c-36 33 -80 36
-126 9 -34 -20 -37 -20 -67 -5 -21 11 -55 16 -103 15 -40 0 -97 2 -129 5 -32
4 -64 2 -75 -4 -13 -6 -41 -7 -83 -1 -51 7 -71 6 -96 -6 -27 -13 -37 -13 -56
-3 -13 7 -45 13 -73 14 -39 1 -54 -3 -72 -21z m151 -35 c20 -16 26 -29 26 -59
0 -21 -3 -46 -6 -55 -10 -25 -59 -45 -114 -45 l-50 0 0 90 0 90 59 0 c44 0 65
-5 85 -21z m188 4 c22 -20 23 -36 2 -54 -14 -11 -14 -13 0 -21 21 -12 20 -58
-1 -74 -10 -7 -44 -14 -75 -14 l-57 0 -3 90 -3 90 59 0 c41 0 65 -5 78 -17z
m181 -4 c-4 -16 -11 -19 -29 -15 -24 6 -24 5 -24 -69 0 -74 0 -75 -26 -75 -25
0 -25 1 -23 73 l2 72 -26 -3 c-22 -3 -27 1 -27 17 0 19 6 21 79 21 75 0 79 -1
74 -21z m158 8 c47 -36 51 -97 10 -138 -85 -85 -218 37 -136 125 19 20 33 26
67 26 24 0 50 -6 59 -13z m188 4 c23 -15 5 -44 -21 -35 -64 20 -75 -4 -16 -31
36 -17 43 -25 43 -50 0 -38 -37 -61 -86 -51 -47 9 -61 19 -53 40 4 11 12 15
23 10 23 -11 70 -10 73 0 2 5 -10 14 -27 19 -61 20 -80 54 -48 89 17 19 87 25
112 9z m231 -12 c0 -18 -4 -20 -25 -15 l-25 6 0 -75 c0 -73 -1 -75 -25 -75
-24 0 -25 2 -25 75 0 74 0 75 -24 69 -18 -4 -25 -1 -29 15 -5 20 -1 21 74 21
74 0 79 -1 79 -21z m160 2 c0 -16 -7 -19 -47 -18 -38 2 -48 -2 -51 -15 -3 -15
4 -18 42 -18 40 0 46 -3 46 -21 0 -18 -5 -20 -42 -17 -34 2 -43 -1 -46 -15 -3
-14 5 -17 47 -17 44 0 51 -3 51 -20 0 -18 -7 -20 -70 -20 l-70 0 0 90 0 90 70
0 c62 0 70 -2 70 -19z m165 5 c17 -12 17 -16 6 -30 -10 -12 -17 -14 -25 -6
-20 20 -66 12 -77 -14 -20 -43 31 -95 66 -66 17 15 45 6 45 -13 0 -16 -41 -37
-71 -37 -25 0 -60 18 -76 39 -22 28 -16 89 12 116 28 29 89 34 120 11z m85
-26 c0 -39 1 -40 35 -40 34 0 35 1 35 40 0 36 3 40 25 40 25 0 25 -1 25 -90 0
-89 0 -90 -25 -90 -22 0 -25 4 -25 35 0 33 -2 35 -35 35 -33 0 -35 -2 -35 -35
0 -31 -3 -35 -25 -35 -25 0 -25 1 -25 90 0 89 0 90 25 90 23 0 25 -4 25 -40z"/>
<path d="M740 1005 c0 -52 2 -55 24 -55 29 0 56 24 56 51 0 25 -35 59 -60 59
-18 0 -20 -7 -20 -55z"/>
<path d="M930 1040 c0 -17 5 -21 28 -18 16 2 27 9 27 18 0 9 -11 16 -27 18
-23 3 -28 -1 -28 -18z"/>
<path d="M930 970 c0 -15 7 -20 28 -20 35 0 45 9 31 27 -18 21 -59 17 -59 -7z"/>
<path d="M1271 1036 c-17 -20 -10 -67 11 -79 27 -18 68 7 68 41 0 15 -5 33
-12 40 -16 16 -53 15 -67 -2z"/>
</g>
</svg>
